<?xml version="1.0" encoding="UTF-8" standalone="no"?>
<!-- Created with Inkscape (http://www.inkscape.org/) -->

<svg
   width="25.741858mm"
   height="5.2090802mm"
   viewBox="0 0 25.741858 5.2090802"
   version="1.1"
   id="svg1"
   xml:space="preserve"
   inkscape:version="1.4.2 (f4327f4, 2025-05-13)"
   sodipodi:docname="VIVOLA_logo.svg"
   xmlns:inkscape="http://www.inkscape.org/namespaces/inkscape"
   xmlns:sodipodi="http://sodipodi.sourceforge.net/DTD/sodipodi-0.dtd"
   xmlns="http://www.w3.org/2000/svg"
   xmlns:svg="http://www.w3.org/2000/svg"><sodipodi:namedview
     id="namedview1"
     pagecolor="#ffffff"
     bordercolor="#000000"
     borderopacity="0.25"
     inkscape:showpageshadow="2"
     inkscape:pageopacity="0.0"
     inkscape:pagecheckerboard="0"
     inkscape:deskcolor="#d1d1d1"
     inkscape:document-units="mm"
     showguides="true"
     inkscape:zoom="5.6568543"
     inkscape:cx="54.712387"
     inkscape:cy="-12.109204"
     inkscape:window-width="1920"
     inkscape:window-height="1111"
     inkscape:window-x="-9"
     inkscape:window-y="1202"
     inkscape:window-maximized="1"
     inkscape:current-layer="layer2"><sodipodi:guide
       position="-2.6580651,295.09061"
       orientation="0,-1"
       id="guide1"
       inkscape:locked="false" /></sodipodi:namedview><defs
     id="defs1" /><g
     inkscape:label="Ebene 1"
     inkscape:groupmode="layer"
     id="layer1"
     style="display:none"
     transform="translate(-27.377155,-17.384126)"><path
       style="font-weight:bold;font-size:7.05556px;font-family:'Nirmala UI';-inkscape-font-specification:'Nirmala UI Bold';fill-opacity:0.714286;stroke-width:1.32292"
       d="m 32.071145,17.516809 -1.701878,4.94027 h -1.260906 l -1.681208,-4.94027 h 1.198894 l 1.030084,3.438207 q 0.08268,0.279053 0.09991,0.492649 h 0.02067 q 0.02411,-0.230821 0.106798,-0.506429 l 1.023194,-3.424427 z m 1.705323,4.94027 h -1.112766 v -4.94027 h 1.112766 z m 5.236549,-4.94027 -1.701878,4.94027 h -1.260906 l -1.681208,-4.94027 h 1.198894 l 1.030084,3.438207 q 0.08268,0.279053 0.09991,0.492649 h 0.02067 q 0.02412,-0.230821 0.106798,-0.506429 l 1.023194,-3.424427 z m 2.638945,5.026397 q -1.06109,0 -1.729439,-0.689019 -0.668349,-0.692465 -0.668349,-1.801786 0,-1.171333 0.678685,-1.894804 0.678684,-0.723471 1.798341,-0.723471 1.057645,0 1.708768,0.692465 0.654569,0.692465 0.654569,1.825902 0,1.164443 -0.678685,1.877578 -0.675239,0.713135 -1.76389,0.713135 z m 0.04823,-4.151342 q -0.585667,0 -0.930177,0.440972 -0.344509,0.437528 -0.344509,1.160998 0,0.733806 0.344509,1.160998 0.34451,0.427192 0.902616,0.427192 0.575331,0 0.912951,-0.413412 0.337619,-0.416856 0.337619,-1.154107 0,-0.768257 -0.327284,-1.195449 -0.327284,-0.427192 -0.895725,-0.427192 z m 6.156389,4.065215 H 44.91447 v -4.94027 h 1.112767 v 4.037654 h 1.829346 z m 5.212433,0 H 51.85634 l -0.3514,-1.098986 h -1.757 l -0.347955,1.098986 h -1.205784 l 1.798341,-4.94027 h 1.319472 z m -1.819011,-1.95337 -0.530546,-1.660538 q -0.05857,-0.186035 -0.08268,-0.444417 h -0.02756 q -0.01723,0.217041 -0.08613,0.430637 l -0.537435,1.674318 z"
       id="text1"
       aria-label="VIVOLA" /></g><g
     inkscape:groupmode="layer"
     id="layer2"
     inkscape:label="Ebene 2"
     style="display:inline"
     transform="translate(-27.377155,-17.384126)"><path
       style="font-weight:bold;font-size:7.05556px;font-family:'Nirmala UI';-inkscape-font-specification:'Nirmala UI Bold';fill:#accbe1;fill-opacity:1;stroke:#353535;stroke-width:0.1;stroke-linecap:round;stroke-linejoin:round;stroke-dasharray:none;stroke-opacity:1;paint-order:fill markers stroke"
       d="m 32.071145,17.516809 -1.701878,4.94027 h -1.260906 l -1.681208,-4.94027 h 1.198894 l 1.030084,3.438207 c 0.05512,0.186035 0.08842,0.350252 0.09991,0.492649 h 0.02067 c 0.01607,-0.153881 0.05167,-0.32269 0.106798,-0.506429 l 1.023194,-3.424427 z m 1.705323,4.94027 h -1.112766 v -4.94027 h 1.112766 z m 5.236549,-4.94027 -1.701878,4.94027 h -1.260906 l -1.076907,-3.163805 1.12643,-3.4e-5 0.498247,1.661743 c 0.05512,0.186035 0.08842,0.350252 0.09991,0.492649 h 0.02067 c 0.01608,-0.153881 0.05168,-0.32269 0.106798,-0.506429 l 1.023194,-3.424427 z m 2.638945,5.026397 c -0.707393,0 -1.283873,-0.229673 -1.729439,-0.689019 -0.445566,-0.461643 -0.668349,-1.062239 -0.668349,-1.801786 0,-0.780889 0.226228,-1.41249 0.678685,-1.894804 0.452456,-0.482314 1.051903,-0.723471 1.798341,-0.723471 0.705097,0 1.274686,0.230822 1.708768,0.692465 0.436379,0.461643 0.654569,1.070277 0.654569,1.825902 0,0.776295 -0.226228,1.402155 -0.678685,1.877578 -0.450159,0.475423 -1.038123,0.713135 -1.76389,0.713135 z m 0.04823,-4.151342 c -0.390445,0 -0.700504,0.146991 -0.930177,0.440972 -0.229673,0.291685 -0.344509,0.678685 -0.344509,1.160998 0,0.489204 0.114836,0.876203 0.344509,1.160998 0.229673,0.284795 0.530545,0.427192 0.902616,0.427192 0.383554,0 0.687871,-0.137804 0.912951,-0.413412 0.225079,-0.277904 0.337619,-0.662606 0.337619,-1.154107 0,-0.512171 -0.109095,-0.910654 -0.327284,-1.195449 -0.218189,-0.284795 -0.516764,-0.427192 -0.895725,-0.427192 z m 6.156389,4.065215 H 44.91447 v -4.94027 h 1.112767 v 4.037654 h 1.829346 z m 5.212433,0 H 51.85634 l -0.3514,-1.098986 h -1.757 l -0.347955,1.098986 h -1.205784 l 1.798341,-4.94027 h 1.319472 z m -1.819011,-1.95337 -0.530546,-1.660538 c -0.03905,-0.124023 -0.06661,-0.272162 -0.08268,-0.444417 h -0.02756 c -0.01149,0.144694 -0.0402,0.28824 -0.08613,0.430637 l -0.537435,1.674318 z"
       id="path1"
       aria-label="VIVOLA"
       sodipodi:nodetypes="cccccccccccccccccccccccccccscssscscsscssscsssccccccccccccccccccccccc" /><path
       d="m 39.012146,17.51642 -1.701878,4.94027 h -1.260906 l -1.076907,-3.163805 1.12643,-3.4e-5 0.498247,1.661743 c 0.05512,0.186035 0.08842,0.350252 0.09991,0.492649 h 0.02067 c 0.01608,-0.153881 0.05168,-0.32269 0.106798,-0.506429 l 1.023194,-3.424427 z"
       style="font-weight:bold;font-size:7.05556px;font-family:'Nirmala UI';-inkscape-font-specification:'Nirmala UI Bold';opacity:0.666667;fill:#97cc04;fill-opacity:1;stroke:#353535;stroke-width:0.1;stroke-linecap:round;stroke-linejoin:round;stroke-dasharray:none;stroke-opacity:1;paint-order:fill markers stroke"
       id="path1-7" /></g><style
     type="text/css"
     id="style1">
	.st0{fill:#000000;}
</style></svg>
